<svg width="79" height="75" viewBox="0 0 79 75" fill="none" xmlns="http://www.w3.org/2000/svg">
<path d="M32.4074 24.8481L29.3395 40.2736H25.096L25.3827 38.754C24.1021 39.92 22.5251 40.503 20.6519 40.503C19.4477 40.503 18.339 40.2258 17.3259 39.6715C16.3129 39.1171 15.5005 38.3239 14.8888 37.2917C14.2963 36.2404 14 35.0075 14 33.593C14 31.8918 14.3727 30.3627 15.1182 29.0055C15.8828 27.6293 16.915 26.5589 18.2148 25.7943C19.5146 25.0106 20.9482 24.6187 22.5156 24.6187C24.8858 24.6187 26.5583 25.3929 27.5331 26.9411L27.9345 24.8481H32.4074ZM22.0281 36.8043C22.9074 36.8043 23.6911 36.594 24.3792 36.1735C25.0674 35.7339 25.6026 35.1318 25.9849 34.3672C26.3672 33.6026 26.5583 32.7233 26.5583 31.7294C26.5583 30.678 26.2429 29.8466 25.6121 29.2349C25.0005 28.6232 24.1403 28.3174 23.0317 28.3174C22.1524 28.3174 21.3687 28.5372 20.6806 28.9768C19.9924 29.3974 19.4572 29.9899 19.0749 30.7545C18.6926 31.5191 18.5015 32.3984 18.5015 33.3923C18.5015 34.4436 18.8073 35.2751 19.419 35.8868C20.0498 36.4984 20.9195 36.8043 22.0281 36.8043Z" fill="url(#paint0_linear_402_1589)"/>
<path d="M37.9534 40.503C36.6153 40.503 35.3442 40.3596 34.14 40.0729C32.9549 39.767 32.0278 39.3752 31.3588 38.8973L33.0791 35.6574C33.7482 36.097 34.5605 36.4507 35.5163 36.7183C36.4911 36.9859 37.4659 37.1197 38.4408 37.1197C39.4539 37.1197 40.2089 36.9954 40.7059 36.7469C41.2028 36.4793 41.4513 36.1066 41.4513 35.6287C41.4513 35.2464 41.2315 34.9693 40.7919 34.7972C40.3522 34.6252 39.645 34.4436 38.6702 34.2525C37.5615 34.0422 36.644 33.8128 35.9177 33.5644C35.2104 33.3159 34.5892 32.9145 34.054 32.3601C33.5379 31.7867 33.2798 31.0126 33.2798 30.0377C33.2798 28.3365 33.9871 27.008 35.4016 26.0523C36.8352 25.0966 38.7084 24.6187 41.0213 24.6187C42.0917 24.6187 43.1334 24.7334 44.1465 24.9628C45.1596 25.1922 46.0197 25.5075 46.727 25.909L45.1213 29.1776C43.8598 28.3939 42.3402 28.002 40.5625 28.002C39.5877 28.002 38.8422 28.1454 38.3261 28.4321C37.8291 28.7188 37.5806 29.082 37.5806 29.5216C37.5806 29.923 37.8004 30.2193 38.2401 30.4104C38.6797 30.5825 39.4156 30.7736 40.4478 30.9839C41.5374 31.1941 42.4262 31.4235 43.1143 31.672C43.8215 31.9014 44.4332 32.2932 44.9493 32.8476C45.4654 33.4019 45.7235 34.1569 45.7235 35.1126C45.7235 36.833 44.9971 38.1614 43.5444 39.098C42.1108 40.0346 40.2471 40.503 37.9534 40.503Z" fill="url(#paint1_linear_402_1589)"/>
<path d="M57.9162 31.5573L63.2205 40.2736H58.0309L54.3609 34.2812L51.637 36.5462L50.8916 40.2736H46.4187L50.6622 18.999H55.135L52.7552 30.8979L60.1526 24.8481H65.973L57.9162 31.5573Z" fill="url(#paint2_linear_402_1589)"/>
<path d="M3 8.73438V15.9024V51.7423C3 54.9093 5.56737 57.4766 8.73438 57.4766H46.0079L61.3234 71.6141C62.3514 72.563 63.9907 71.6283 63.6976 70.2603L60.3438 54.6094H70.379C73.546 54.6094 76.1134 52.0421 76.1134 48.8751V8.73438C76.1134 5.56737 73.546 3 70.379 3H8.73438C5.56737 3 3 5.56737 3 8.73438Z" stroke="url(#paint3_linear_402_1589)" stroke-width="4.30079"/>
<defs>
<linearGradient id="paint0_linear_402_1589" x1="14" y1="18.999" x2="26.0791" y2="53.1106" gradientUnits="userSpaceOnUse">
<stop stop-color="#485BFF"/>
<stop offset="1" stop-color="#FF59F8"/>
</linearGradient>
<linearGradient id="paint1_linear_402_1589" x1="14" y1="18.999" x2="26.0791" y2="53.1106" gradientUnits="userSpaceOnUse">
<stop stop-color="#485BFF"/>
<stop offset="1" stop-color="#FF59F8"/>
</linearGradient>
<linearGradient id="paint2_linear_402_1589" x1="14" y1="18.999" x2="26.0791" y2="53.1106" gradientUnits="userSpaceOnUse">
<stop stop-color="#485BFF"/>
<stop offset="1" stop-color="#FF59F8"/>
</linearGradient>
<linearGradient id="paint3_linear_402_1589" x1="3" y1="3" x2="63.211" y2="77.547" gradientUnits="userSpaceOnUse">
<stop stop-color="#485BFF"/>
<stop offset="1" stop-color="#FF59F8"/>
</linearGradient>
</defs>
</svg>
