<svg width="16" height="16" viewBox="0 0 16 16" fill="none" xmlns="http://www.w3.org/2000/svg">
<path d="M14.8 11.7557L9.33437 2.26379C9.19779 2.03124 9.00281 1.83843 8.76875 1.70445C8.53469 1.57048 8.26969 1.5 8 1.5C7.73031 1.5 7.4653 1.57048 7.23124 1.70445C6.99719 1.83843 6.8022 2.03124 6.66562 2.26379L1.2 11.7557C1.06858 11.9806 0.999329 12.2364 0.999329 12.4969C0.999329 12.7574 1.06858 13.0132 1.2 13.2382C1.33483 13.4721 1.52948 13.666 1.76397 13.7999C1.99847 13.9338 2.26436 14.0028 2.53437 14H13.4656C13.7354 14.0026 14.0011 13.9334 14.2353 13.7996C14.4696 13.6657 14.664 13.4719 14.7987 13.2382C14.9304 13.0134 14.9998 12.7576 15 12.4971C15.0003 12.2366 14.9312 11.9807 14.8 11.7557ZM7.5 6.50004C7.5 6.36743 7.55268 6.24026 7.64645 6.14649C7.74021 6.05272 7.86739 6.00004 8 6.00004C8.13261 6.00004 8.25978 6.05272 8.35355 6.14649C8.44732 6.24026 8.5 6.36743 8.5 6.50004V9.00004C8.5 9.13265 8.44732 9.25983 8.35355 9.35359C8.25978 9.44736 8.13261 9.50004 8 9.50004C7.86739 9.50004 7.74021 9.44736 7.64645 9.35359C7.55268 9.25983 7.5 9.13265 7.5 9.00004V6.50004ZM8 12C7.85166 12 7.70666 11.9561 7.58332 11.8736C7.45998 11.7912 7.36385 11.6741 7.30709 11.5371C7.25032 11.4 7.23547 11.2492 7.26441 11.1037C7.29335 10.9582 7.36478 10.8246 7.46967 10.7197C7.57456 10.6148 7.7082 10.5434 7.85368 10.5145C7.99917 10.4855 8.14997 10.5004 8.28701 10.5571C8.42406 10.6139 8.54119 10.71 8.6236 10.8334C8.70601 10.9567 8.75 11.1017 8.75 11.25C8.75 11.449 8.67098 11.6397 8.53033 11.7804C8.38968 11.921 8.19891 12 8 12Z" fill="#FB7185"/>
</svg>
