<svg width="9" height="10" viewBox="0 0 9 10" fill="none" xmlns="http://www.w3.org/2000/svg">
<path d="M2.40552 0.480364L8.31105 3.97991C8.44605 4.05977 8.55677 4.16805 8.63335 4.29512C8.70993 4.42218 8.75 4.5641 8.75 4.70825C8.75 4.8524 8.70993 4.99432 8.63335 5.12139C8.55677 5.24845 8.44605 5.35673 8.31105 5.4366L2.40552 8.93614C2.25725 9.02407 2.08491 9.07456 1.90688 9.08223C1.72886 9.08989 1.55183 9.05445 1.3947 8.97967C1.23757 8.90489 1.10623 8.7936 1.0147 8.65765C0.923168 8.52171 0.874884 8.36623 0.875 8.2078V1.20871C0.874884 1.05028 0.923168 0.894794 1.0147 0.758851C1.10623 0.622908 1.23757 0.511609 1.3947 0.436833C1.55183 0.362057 1.72886 0.32661 1.90688 0.334277C2.08491 0.341944 2.25725 0.392436 2.40552 0.480364Z" fill="url(#paint0_linear_802_73)"/>
<defs>
<linearGradient id="paint0_linear_802_73" x1="0.875" y1="4.79294" x2="8.99254" y2="4.93817" gradientUnits="userSpaceOnUse">
<stop stop-color="#9F55FF"/>
<stop offset="1" stop-color="#FF46B9"/>
</linearGradient>
</defs>
</svg>
