<svg width="17" height="16" viewBox="0 0 17 16" fill="none" xmlns="http://www.w3.org/2000/svg">
<path d="M16.278 7.02228L13.0587 9.83183L14.0231 14.0147C14.0741 14.2334 14.0595 14.4623 13.9812 14.6727C13.9029 14.8831 13.7642 15.0658 13.5827 15.1979C13.4011 15.33 13.1846 15.4056 12.9602 15.4153C12.7359 15.425 12.5137 15.3684 12.3214 15.2525L8.67309 13.0397L5.03268 15.2525C4.84036 15.3684 4.61814 15.425 4.39381 15.4153C4.16947 15.4056 3.95297 15.33 3.77138 15.1979C3.58979 15.0658 3.45116 14.8831 3.37283 14.6727C3.2945 14.4623 3.27994 14.2334 3.33097 14.0147L4.29389 9.83611L1.07391 7.02228C0.903605 6.8754 0.780454 6.6815 0.719905 6.46491C0.659355 6.24831 0.664102 6.01866 0.73355 5.80475C0.802998 5.59084 0.934055 5.4022 1.11029 5.26248C1.28652 5.12276 1.50008 5.03818 1.72419 5.01934L5.96848 4.65173L7.62523 0.700102C7.71174 0.492752 7.85768 0.315637 8.04465 0.191056C8.23162 0.0664754 8.45127 0 8.67595 0C8.90063 0 9.12028 0.0664754 9.30725 0.191056C9.49422 0.315637 9.64016 0.492752 9.72667 0.700102L11.3884 4.65173L15.6313 5.01934C15.8554 5.03818 16.0689 5.12276 16.2452 5.26248C16.4214 5.4022 16.5525 5.59084 16.6219 5.80475C16.6914 6.01866 16.6961 6.24831 16.6356 6.46491C16.575 6.6815 16.4519 6.8754 16.2816 7.02228H16.278Z" fill="#FEEA35"/>
</svg>
